<?xml version="1.0" encoding="UTF-8" standalone="no"?>
<svg
   xmlns:dc="http://purl.org/dc/elements/1.1/"
   xmlns:cc="http://creativecommons.org/ns#"
   xmlns:rdf="http://www.w3.org/1999/02/22-rdf-syntax-ns#"
   xmlns:svg="http://www.w3.org/2000/svg"
   xmlns="http://www.w3.org/2000/svg"
   xmlns:sodipodi="http://sodipodi.sourceforge.net/DTD/sodipodi-0.dtd"
   xmlns:inkscape="http://www.inkscape.org/namespaces/inkscape"
   viewBox="0 0 64 80"
   x="0px"
   y="0px"
   version="1.1"
   id="svg917"
   sodipodi:docname="icon.svg"
   inkscape:version="1.0.1 (3bc2e813f5, 2020-09-07)">
  <metadata
     id="metadata923">
    <rdf:RDF>
      <cc:Work
         rdf:about="">
        <dc:format>image/svg+xml</dc:format>
        <dc:type
           rdf:resource="http://purl.org/dc/dcmitype/StillImage" />
      </cc:Work>
    </rdf:RDF>
  </metadata>
  <defs
     id="defs921" />
  <sodipodi:namedview
     pagecolor="#ffffff"
     bordercolor="#666666"
     borderopacity="1"
     objecttolerance="10"
     gridtolerance="10"
     guidetolerance="10"
     inkscape:pageopacity="0"
     inkscape:pageshadow="2"
     inkscape:window-width="1549"
     inkscape:window-height="938"
     id="namedview919"
     showgrid="false"
     inkscape:zoom="6.9208076"
     inkscape:cx="22.570955"
     inkscape:cy="35.535169"
     inkscape:window-x="128"
     inkscape:window-y="27"
     inkscape:window-maximized="0"
     inkscape:current-layer="svg917" />
  <title
     id="title897">speed boat</title>
  <g
     data-name="Layer 12"
     id="g911">
    <path
       d="M47.35,50.46H2.62a1,1,0,0,1-.88-.52,1,1,0,0,1,0-1l10-16.2a1,1,0,0,1,.85-.47H61.37a1,1,0,0,1,.91.58,1,1,0,0,1-.16,1.07l-14,16.2A1,1,0,0,1,47.35,50.46Zm-42.94-2H46.9l12.28-14.2h-46Z"
       id="path899" />
    <path
       d="M47.8,34.26H21.3a1,1,0,0,1-1-1V19.86a1,1,0,0,1,1-1H39.47a1,1,0,0,1,.85.47l8.33,13.4a1,1,0,0,1-.85,1.53Zm-25.5-2H46l-7.09-11.4H22.3Z"
       id="path901" />
    <path
       d="M44.94,29.66H29.05a1,1,0,0,1-1-1v-5a1,1,0,0,1,1-1H41.83a1,1,0,0,1,0,2H30.05v3H44.94a1,1,0,0,1,0,2Z"
       id="path903" />
    <path
       d="M15.22,34.26a1,1,0,0,1-1-1V12.94a1,1,0,1,1,2,0V33.26A1,1,0,0,1,15.22,34.26Z"
       id="path905" />
    <path
       d="M52.13,44.94H6a1,1,0,1,1,0-2H52.13a1,1,0,0,1,0,2Z"
       id="path907" />
    <path
       d="M8.76,40.54H2.62A1,1,0,0,1,1.74,40a1,1,0,0,1,0-1l3.89-6.28a1,1,0,0,1,.85-.47h6.15a1,1,0,0,1,.88.51,1,1,0,0,1,0,1l-3.9,6.28A1,1,0,0,1,8.76,40.54Zm-4.35-2h3.8l2.65-4.28H7.07Z"
       id="path909" />
  </g>
</svg>
