<svg version="1.0" xmlns="http://www.w3.org/2000/svg" width="360px" height="82px" viewBox="0 0 3600 820" preserveAspectRatio="xMidYMid meet">
    <g id="layer101" fill="#5c566b" stroke="none">
        <path d="M7 793 c-10 -9 -8 -755 1 -771 7 -10 372 -12 1793 -10 l1784 3 0 390 0 390 -1786 3 c-982 1 -1789 -1 -1792 -5z" />
    </g>
    <g id="layer102" fill="#dc6254" stroke="none">
        <path d="M7 793 c-9 -8 -9 -746 -1 -767 l6 -16 970 0 970 0 -35 47 c-155 213 -157 496 -4 696 l37 47 -968 0 c-533 0 -972 -3 -975 -7z" />
    </g>
    <g id="layer103" fill="#f9f6f6" stroke="none">
        <path d="M2175 606 c-79 -35 -121 -118 -112 -221 6 -84 39 -134 110 -170 67 -33 127 -33 195 1 29 14 52 29 52 32 0 4 -11 20 -25 35 l-26 27 -29 -15 c-42 -22 -102 -19 -133 6 -63 49 -54 189 14 224 36 19 90 19 115 0 28 -21 51 -18 70 10 19 30 11 45 -40 69 -41 19 -149 21 -191 2z" />
        <path d="M2462 408 l3 -213 108 2 c124 2 160 16 191 74 26 48 15 103 -27 143 l-32 30 52 80 c29 44 53 84 53 88 0 5 -26 8 -57 6 l-57 -3 -41 -70 c-28 -48 -48 -71 -63 -73 l-22 -3 0 75 0 76 -55 0 -55 0 2 -212z m190 -30 c45 -36 20 -94 -44 -105 l-38 -6 0 62 0 61 33 0 c18 0 40 -6 49 -12z" />
        <path d="M2850 404 l0 -217 50 5 c28 3 52 7 54 9 2 2 33 62 68 133 l65 129 69 -131 69 -132 31 -6 c18 -3 40 -4 51 -2 l18 3 3 213 2 212 -45 0 -45 0 0 -132 -1 -133 -57 107 c-83 157 -105 157 -186 0 l-55 -107 -1 133 0 132 -45 0 -45 0 0 -216z" />
        <path d="M293 518 c-13 -6 -23 -17 -23 -25 0 -19 28 -27 45 -13 9 7 26 10 41 6 38 -10 29 -46 -15 -61 -68 -22 -86 -77 -39 -117 25 -22 91 -24 108 -3 18 21 5 30 -43 30 -61 0 -62 28 -2 51 53 20 69 43 60 85 -11 49 -79 73 -132 47z" />
        <path d="M601 517 c-39 -23 -50 -55 -51 -144 l0 -83 25 0 25 0 0 85 0 85 25 16 25 16 25 -16 25 -16 0 -85 0 -85 25 0 25 0 0 89 0 90 -23 26 c-27 32 -90 42 -126 22z" />
        <path d="M890 411 l0 -121 25 0 26 0 -3 118 -3 117 -22 3 -23 3 0 -120z" />
        <path d="M1130 431 l0 -101 -33 0 c-38 0 -48 -6 -40 -26 4 -11 28 -14 99 -14 l94 0 0 20 c0 16 -7 20 -35 20 l-34 0 -3 98 -3 97 -22 3 -23 3 0 -100z" />
        <path d="M1367 524 c-4 -4 -7 -58 -7 -121 l0 -113 81 0 80 0 -3 18 c-2 13 -15 18 -56 20 l-52 3 0 30 0 29 46 0 c38 0 45 3 42 18 -2 12 -15 18 -46 20 l-42 3 0 30 0 29 56 0 55 0 -3 18 c-3 14 -16 18 -74 20 -38 1 -73 0 -77 -4z" />
    </g>
</svg>