<?xml version="1.0" encoding="UTF-8" standalone="no"?>
<svg
   xmlns:dc="http://purl.org/dc/elements/1.1/"
   xmlns:cc="http://creativecommons.org/ns#"
   xmlns:rdf="http://www.w3.org/1999/02/22-rdf-syntax-ns#"
   xmlns:svg="http://www.w3.org/2000/svg"
   xmlns="http://www.w3.org/2000/svg"
   xmlns:sodipodi="http://sodipodi.sourceforge.net/DTD/sodipodi-0.dtd"
   xmlns:inkscape="http://www.inkscape.org/namespaces/inkscape"
   viewBox="0 0 48 60"
   x="0px"
   y="0px"
   version="1.1"
   id="svg897"
   sodipodi:docname="noun_Propeller_2993557.svg"
   inkscape:version="1.0.1 (3bc2e813f5, 2020-09-07)">
  <metadata
     id="metadata903">
    <rdf:RDF>
      <cc:Work
         rdf:about="">
        <dc:format>image/svg+xml</dc:format>
        <dc:type
           rdf:resource="http://purl.org/dc/dcmitype/StillImage" />
        <dc:title></dc:title>
      </cc:Work>
    </rdf:RDF>
  </metadata>
  <defs
     id="defs901" />
  <sodipodi:namedview
     pagecolor="#ffffff"
     bordercolor="#666666"
     borderopacity="1"
     objecttolerance="10"
     gridtolerance="10"
     guidetolerance="10"
     inkscape:pageopacity="0"
     inkscape:pageshadow="2"
     inkscape:window-width="1732"
     inkscape:window-height="902"
     id="namedview899"
     showgrid="false"
     inkscape:zoom="4.6138718"
     inkscape:cx="0.021055914"
     inkscape:cy="46.002438"
     inkscape:window-x="227"
     inkscape:window-y="34"
     inkscape:window-maximized="0"
     inkscape:current-layer="svg897" />
  <g
     data-name="Boat Engine"
     id="g891">
    <path
       d="M43,21H27.9744c-.0877-.116-.18-.2279-.2771-.3357a19.4807,19.4807,0,0,0,1.62-6.2883,11.1112,11.1112,0,0,1,4.2183,4.1264,1,1,0,1,0,1.7294-1.0048A13.089,13.089,0,0,0,29.366,12.166,13.357,13.357,0,0,0,29.06,9.8713a14.99,14.99,0,0,1,8.8424,8.5032,1,1,0,0,0,1.8545-.749A16.974,16.974,0,0,0,28.2317,7.5361c-.0881-.1711-.1734-.3443-.2727-.5073A6.1385,6.1385,0,0,0,22.45,4H22a1,1,0,0,0-1,1V20.0256c-.116.0877-.2279.18-.3357.2771a19.4782,19.4782,0,0,0-6.2883-1.62,11.1112,11.1112,0,0,1,4.1264-4.2183,1,1,0,0,0-1.0048-1.7294A13.09,13.09,0,0,0,12.166,18.634a13.357,13.357,0,0,0-2.2947.3057,14.99,14.99,0,0,1,8.5032-8.8425,1,1,0,0,0-.749-1.8545A16.974,16.974,0,0,0,7.5361,19.7684c-.1711.088-.3443.1733-.5073.2726A6.1385,6.1385,0,0,0,4,25.55V26a1,1,0,0,0,1,1H20.0256c.0877.116.18.2279.2771.3357a19.48,19.48,0,0,0-1.62,6.2883,11.1112,11.1112,0,0,1-4.2183-4.1264,1,1,0,0,0-1.7294,1.0048A13.089,13.089,0,0,0,18.634,35.834a13.357,13.357,0,0,0,.3056,2.2947,14.99,14.99,0,0,1-8.8424-8.5032,1,1,0,0,0-1.8545.749A16.974,16.974,0,0,0,19.7683,40.4639c.0881.1711.1734.3443.2727.5073A6.1385,6.1385,0,0,0,25.55,44H26a1,1,0,0,0,1-1V27.9744c.1169-.0884.23-.1811.3384-.2793a19.4585,19.4585,0,0,0,6.287,1.6193,11.1114,11.1114,0,0,1-4.1278,4.2208,1,1,0,0,0,1.0048,1.7294,13.0878,13.0878,0,0,0,5.34-5.9182,13.413,13.413,0,0,0,2.2851-.2826,14.99,14.99,0,0,1-8.5022,8.839,1,1,0,1,0,.749,1.8545,16.9738,16.9738,0,0,0,10.096-11.5514c.1649-.0854.3434-.1511.5007-.2469A6.1385,6.1385,0,0,0,44,22.45V22A1,1,0,0,0,43,21ZM21,24a3,3,0,1,1,3,3A3.0033,3.0033,0,0,1,21,24ZM23,6.0259A4.1,4.1,0,0,1,26.251,8.07c1.7452,2.8633,1.26,7.8684-.2073,11.3778A4.9232,4.9232,0,0,0,23,19.1011ZM6.0259,25A4.1,4.1,0,0,1,8.07,21.749c2.8642-1.7465,7.8692-1.26,11.3778.2073A4.9232,4.9232,0,0,0,19.1011,25ZM25,41.9741A4.1,4.1,0,0,1,21.749,39.93c-1.7452-2.8633-1.26-7.8684.2073-11.3778A4.9232,4.9232,0,0,0,25,28.8989ZM39.93,26.251c-2.8646,1.7461-7.8686,1.2595-11.3777-.2074A4.9235,4.9235,0,0,0,28.8989,23H41.9741A4.1,4.1,0,0,1,39.93,26.251ZM24,26a2,2,0,1,1,2-2A2.002,2.002,0,0,1,24,26Z"
       id="path889" />
  </g>
</svg>
