<svg width="123" height="123" xmlns="http://www.w3.org/2000/svg">
    <title>Logo Blue</title>
    <desc>Created with Sketch.</desc>
    <g>
        <title>background</title>
        <rect x="-1" y="-1" width="125" height="125" id="canvas_background" fill="none" />
    </g>
    <g>
        <title>Layer 1</title>
        <g id="icon" fill="#1875F0">
            <path d="m97.40865,12.215l0.6461,12.98682c10.55726,11.63182 14.72445,28.10483 9.46897,43.58711c-7.84512,23.11094 -33.71392,35.25973 -57.77886,27.13496c-24.06569,-8.12402 -37.21483,-33.44586 -29.36971,-56.5568c5.27265,-15.53368 18.68771,-26.11517 34.22483,-28.91679l8.39486,-9.89171c-26.18998,-0.70692 -50.89879,15.50537 -59.73958,41.54978c-10.86201,31.99999 6.34377,66.72264 38.43086,77.55591c32.08708,10.83253 66.90498,-6.32729 77.76774,-38.32728c8.82586,-26.00195 -0.88064,-53.80286 -22.04521,-69.122z" id="Shape" />
            <path d="m82.36741,50.53641l-0.44443,-18.15577l-0.35629,-10.44741l-0.24127,-9.0507c0,0 0.05005,-4.36445 -0.10233,-5.39019c-0.03211,-0.21603 -0.10009,-0.39108 -0.1815,-0.54453l-0.03063,-0.06407l-0.0351,-0.05586c-0.16732,-0.28829 -0.43174,-0.52219 -0.77309,-0.63765c-0.34882,-0.1177 -0.71034,-0.08864 -1.02405,0.04618l-0.01942,0.00745l-0.10831,0.05513c-0.14864,0.07225 -0.30027,0.16611 -0.44816,0.30914c-0.7462,0.72182 -3.36423,4.21919 -3.36423,4.21919l-5.70513,7.0439l-6.64628,8.08305l-11.41176,14.15261c0,0 -5.2368,6.51799 -4.07979,14.54146c1.15776,8.02271 7.13851,11.93127 11.77851,13.49783c4.63925,1.56655 11.77104,2.08501 17.57776,-3.58751c5.80597,-5.67251 5.6155,-14.02225 5.6155,-14.02225z" id="Shape" />
        </g>
    </g>
</svg>