<svg width="256" height="256" viewBox="0 0 256 256" fill="none" xmlns="http://www.w3.org/2000/svg">
<g clip-path="url(#clip0)">
<g filter="url(#filter0_d)">
<path d="M128 253C197.036 253 253 197.036 253 128C253 58.9644 197.036 3 128 3C58.9644 3 3 58.9644 3 128C3 197.036 58.9644 253 128 253Z" fill="black" fill-opacity="0.01"/>
</g>
<g filter="url(#filter1_iii)">
<path d="M128 253C197.036 253 253 197.036 253 128C253 58.9644 197.036 3 128 3C58.9644 3 3 58.9644 3 128C3 197.036 58.9644 253 128 253Z" fill="#C7DAF3"/>
<path d="M128 253C197.036 253 253 197.036 253 128C253 58.9644 197.036 3 128 3C58.9644 3 3 58.9644 3 128C3 197.036 58.9644 253 128 253Z" fill="url(#paint0_linear)" fill-opacity="0.03"/>
</g>
<path d="M252.5 128C252.5 196.759 196.759 252.5 128 252.5C59.2405 252.5 3.5 196.759 3.5 128C3.5 59.2405 59.2405 3.5 128 3.5C196.759 3.5 252.5 59.2405 252.5 128Z" stroke="black" stroke-opacity="0.1"/>
<path d="M157.172 67.0879C149.035 61.0059 138.94 57.3999 128 57.3999C117.06 57.3999 106.965 61.0059 98.8283 67.0879C96.8423 68.5719 95.9363 71.1039 96.4603 73.5269L98.5083 82.9989H157.491L159.539 73.5269C160.064 71.1039 159.158 68.5729 157.172 67.0879ZM136.358 73.4309C134.147 75.7329 131.178 76.9999 128 76.9999C124.822 76.9999 121.853 75.7329 119.642 73.4309C119.183 72.9539 119.197 72.1939 119.675 71.7349C120.151 71.2739 120.912 71.2899 121.371 71.7689C122.844 73.3009 124.74 74.2459 126.8 74.5129V67.4669C126.086 67.0509 125.6 66.2859 125.6 65.3999C125.6 64.0749 126.674 62.9999 128 62.9999C129.326 62.9999 130.4 64.0739 130.4 65.3999C130.4 66.2859 129.915 67.0509 129.2 67.4669V74.5129C131.26 74.2449 133.156 73.2999 134.629 71.7689C135.088 71.2919 135.848 71.2749 136.325 71.7349C136.803 72.1939 136.818 72.9539 136.358 73.4309Z" fill="white"/>
<path d="M157.172 67.0879C149.035 61.0059 138.94 57.3999 128 57.3999C117.06 57.3999 106.965 61.0059 98.8283 67.0879C96.8423 68.5719 95.9363 71.1039 96.4603 73.5269L98.5083 82.9989H157.491L159.539 73.5269C160.064 71.1039 159.158 68.5729 157.172 67.0879ZM136.358 73.4309C134.147 75.7329 131.178 76.9999 128 76.9999C124.822 76.9999 121.853 75.7329 119.642 73.4309C119.183 72.9539 119.197 72.1939 119.675 71.7349C120.151 71.2739 120.912 71.2899 121.371 71.7689C122.844 73.3009 124.74 74.2459 126.8 74.5129V67.4669C126.086 67.0509 125.6 66.2859 125.6 65.3999C125.6 64.0749 126.674 62.9999 128 62.9999C129.326 62.9999 130.4 64.0739 130.4 65.3999C130.4 66.2859 129.915 67.0509 129.2 67.4669V74.5129C131.26 74.2449 133.156 73.2999 134.629 71.7689C135.088 71.2919 135.848 71.2749 136.325 71.7349C136.803 72.1939 136.818 72.9539 136.358 73.4309Z" fill="url(#paint1_linear)" fill-opacity="0.2"/>
<path d="M98.8277 67.0879C106.965 61.0059 117.06 57.3999 128 57.3999C138.94 57.3999 149.035 61.0059 157.172 67.0879C159.158 68.5719 160.064 71.1039 159.54 73.5269L157.492 82.9989H98.5087L96.4607 73.5269C95.9357 71.1039 96.8417 68.5729 98.8277 67.0879ZM119.642 73.4309C121.853 75.7329 124.822 76.9999 128 76.9999C131.178 76.9999 134.147 75.7329 136.358 73.4309C136.817 72.9539 136.803 72.1939 136.325 71.7349C135.849 71.2739 135.088 71.2899 134.629 71.7689C133.156 73.3009 131.26 74.2459 129.2 74.5129V67.4669C129.914 67.0509 130.4 66.2859 130.4 65.3999C130.4 64.0749 129.326 62.9999 128 62.9999C126.674 62.9999 125.6 64.0739 125.6 65.3999C125.6 66.2859 126.085 67.0509 126.8 67.4669V74.5129C124.74 74.2449 122.844 73.2999 121.371 71.7689C120.912 71.2919 120.152 71.2749 119.675 71.7349C119.197 72.1939 119.182 72.9539 119.642 73.4309Z" fill="url(#paint2_linear)" fill-opacity="0.2"/>
<g filter="url(#filter2_ii)">
<path d="M97.8512 89.3999C97.6922 89.9249 97.6002 90.4579 97.6002 90.9999C97.6002 98.0689 110.769 103.8 128.001 103.8C145.232 103.8 158.401 98.0689 158.401 90.9999C158.401 90.4579 158.309 89.9249 158.15 89.3999H97.8512Z" fill="#031833"/>
</g>
<path d="M97.8512 89.3999C97.6922 89.9249 97.6002 90.4579 97.6002 90.9999C97.6002 98.0689 110.769 103.8 128.001 103.8C145.232 103.8 158.401 98.0689 158.401 90.9999C158.401 90.4579 158.309 89.9249 158.15 89.3999H97.8512Z" fill="url(#paint3_linear)" fill-opacity="0.2"/>
<path d="M158.15 89.3999C158.309 89.9249 158.401 90.4579 158.401 90.9999C158.401 98.0689 145.232 103.8 128.001 103.8C110.769 103.8 97.6002 98.0689 97.6002 90.9999C97.6002 90.4579 97.6922 89.9249 97.8512 89.3999H158.15Z" fill="url(#paint4_linear)" fill-opacity="0.2"/>
<path d="M173.61 98.9409C173.61 98.9409 172.161 98.9409 170.084 99.4889C168.749 99.8409 167.814 101.059 167.803 102.44C167.789 104.041 167.885 106.291 168.372 108.456C168.756 110.165 169.8 111.656 171.276 112.6C172.452 113.352 174.097 114.208 176.147 114.794L173.61 98.9409Z" fill="#18529E"/>
<path d="M210.391 98.9409C210.391 98.9409 211.839 98.9409 213.916 99.4889C215.251 99.8409 216.185 101.059 216.196 102.44C216.21 104.041 216.115 106.291 215.628 108.456C215.244 110.165 214.2 111.656 212.724 112.6C211.548 113.352 209.904 114.208 207.854 114.794L210.391 98.9409Z" fill="#18529E"/>
<path d="M82.3903 98.9409C82.3903 98.9409 83.8394 98.9409 85.9164 99.4889C87.2514 99.8409 88.1865 101.059 88.1975 102.44C88.2115 104.041 88.1155 106.291 87.6284 108.456C87.2444 110.165 86.2004 111.656 84.7244 112.6C83.5484 113.352 81.9033 114.208 79.8533 114.794L82.3903 98.9409Z" fill="#18529E"/>
<path d="M45.61 98.9409C45.61 98.9409 44.161 98.9409 42.084 99.4889C40.749 99.8409 39.814 101.059 39.803 102.44C39.789 104.041 39.885 106.291 40.372 108.456C40.756 110.165 41.8 111.656 43.276 112.6C44.452 113.352 46.096 114.208 48.147 114.794L45.61 98.9409Z" fill="#18529E"/>
<path d="M187.2 166.348C187.2 161.315 184.251 156.733 179.658 154.677C167.43 149.201 156.04 145.216 147.083 142.462C141.323 146.354 134.57 148.601 128 148.601C121.43 148.601 114.677 146.354 108.917 142.462C99.9599 145.216 88.5708 149.202 76.3418 154.677C71.7478 156.734 68.7997 161.315 68.7997 166.348V178.296C68.7997 181.632 70.1937 184.811 72.6278 187.093C87.1108 200.674 106.579 209 128 209C149.421 209 168.889 200.674 183.372 187.093C185.806 184.811 187.2 181.632 187.2 178.296V166.348Z" fill="#18529E"/>
<path d="M187.2 166.348C187.2 161.315 184.251 156.733 179.658 154.677C167.43 149.201 156.04 145.216 147.083 142.462C141.323 146.354 134.57 148.601 128 148.601C121.43 148.601 114.677 146.354 108.917 142.462C99.9599 145.216 88.5708 149.202 76.3418 154.677C71.7478 156.734 68.7997 161.315 68.7997 166.348V178.296C68.7997 181.632 70.1937 184.811 72.6278 187.093C87.1108 200.674 106.579 209 128 209C149.421 209 168.889 200.674 183.372 187.093C185.806 184.811 187.2 181.632 187.2 178.296V166.348Z" fill="url(#paint5_linear)" fill-opacity="0.15"/>
<path d="M68.7997 166.348C68.7997 161.315 71.7487 156.733 76.3418 154.677C88.5698 149.201 99.9599 145.216 108.917 142.462C114.677 146.354 121.43 148.601 128 148.601C134.57 148.601 141.323 146.354 147.083 142.462C156.04 145.216 167.429 149.202 179.658 154.677C184.252 156.734 187.2 161.315 187.2 166.348V178.296C187.2 181.632 185.806 184.811 183.372 187.093C168.889 200.674 149.421 209 128 209C106.579 209 87.1108 200.674 72.6278 187.093C70.1938 184.811 68.7997 181.632 68.7997 178.296V166.348Z" fill="url(#paint6_linear)" fill-opacity="0.15"/>
<path fill-rule="evenodd" clip-rule="evenodd" d="M73.8902 149.201C67.1532 152.217 62.8002 158.948 62.8002 166.348V170.6H40.4032C30.2802 170.6 22.0732 162.393 22.0732 152.27C22.0732 148.618 24.0742 145.263 27.2702 143.496C34.9362 139.258 41.2722 136.675 48.8732 134.026C53.4382 137.111 58.7922 138.892 64.0002 138.892C69.2082 138.892 74.5612 137.111 79.1272 134.026C84.8642 136.025 89.8812 137.989 95.2922 140.653C87.9752 143.245 80.8112 146.101 73.8902 149.201ZM207.128 134.026C214.729 136.675 221.064 139.258 228.73 143.496C231.926 145.263 233.927 148.618 233.926 152.27C233.926 162.393 225.72 170.6 215.596 170.6H193.201V166.348C193.201 158.949 188.848 152.218 182.111 149.201C175.19 146.101 168.026 143.244 160.709 140.653C166.121 137.989 171.138 136.026 176.874 134.026C181.439 137.111 186.793 138.892 192.001 138.892C197.209 138.892 202.562 137.111 207.128 134.026Z" fill="#18529E"/>
<path fill-rule="evenodd" clip-rule="evenodd" d="M73.8902 149.201C67.1532 152.217 62.8002 158.948 62.8002 166.348V170.6H40.4032C30.2802 170.6 22.0732 162.393 22.0732 152.27C22.0732 148.618 24.0742 145.263 27.2702 143.496C34.9362 139.258 41.2722 136.675 48.8732 134.026C53.4382 137.111 58.7922 138.892 64.0002 138.892C69.2082 138.892 74.5612 137.111 79.1272 134.026C84.8642 136.025 89.8812 137.989 95.2922 140.653C87.9752 143.245 80.8112 146.101 73.8902 149.201ZM207.128 134.026C214.729 136.675 221.064 139.258 228.73 143.496C231.926 145.263 233.927 148.618 233.926 152.27C233.926 162.393 225.72 170.6 215.596 170.6H193.201V166.348C193.201 158.949 188.848 152.218 182.111 149.201C175.19 146.101 168.026 143.244 160.709 140.653C166.121 137.989 171.138 136.026 176.874 134.026C181.439 137.111 186.793 138.892 192.001 138.892C197.209 138.892 202.562 137.111 207.128 134.026Z" fill="url(#paint7_linear)" fill-opacity="0.15"/>
<path fill-rule="evenodd" clip-rule="evenodd" d="M182.109 149.201C188.846 152.217 193.199 158.948 193.199 166.348V170.6H215.596C225.719 170.6 233.926 162.393 233.926 152.27C233.926 148.618 231.925 145.263 228.729 143.496C221.063 139.258 214.727 136.675 207.126 134.026C202.561 137.111 197.207 138.892 191.999 138.892C186.791 138.892 181.438 137.111 176.872 134.026C171.135 136.025 166.118 137.989 160.707 140.653C168.024 143.245 175.188 146.101 182.109 149.201ZM48.8719 134.026C41.271 136.675 34.9351 139.258 27.2692 143.496C24.0732 145.263 22.0723 148.618 22.0733 152.27C22.0733 162.393 30.2791 170.6 40.403 170.6H62.7987V166.348C62.7987 158.949 67.1517 152.218 73.8886 149.201C80.8095 146.101 87.9734 143.244 95.2903 140.653C89.8784 137.989 84.8614 136.026 79.1255 134.026C74.5605 137.111 69.2066 138.892 63.9987 138.892C58.7908 138.892 53.4379 137.111 48.8719 134.026Z" fill="url(#paint8_linear)" fill-opacity="0.15"/>
<path d="M214.501 86.4349C214.537 83.7709 213.517 81.2079 211.616 79.3419C208.246 76.0359 201.779 71.3999 192 71.3999C187.685 71.3999 184.331 71.7849 182.034 72.1769C180.166 72.4959 178.651 73.7809 177.911 75.5249C177.153 77.3109 175.629 78.4289 174.15 79.1199C171.75 80.2439 170.234 82.6729 170.282 85.3229C170.382 90.9079 171.173 95.9519 171.842 99.2839C171.757 100.429 171.707 101.584 171.707 102.746C171.707 111.169 173.978 118.739 178.048 123.673C181.932 128.381 187.51 130.649 191.999 130.649C196.488 130.649 202.066 128.382 205.95 123.673C210.02 118.739 212.291 111.169 212.291 102.746C212.291 102.019 212.27 101.296 212.236 100.576C213.175 97.6429 214.419 92.6199 214.501 86.4349Z" fill="#18529E"/>
<path d="M85.7185 85.3231C85.7655 82.6741 84.2504 80.244 81.8504 79.12C80.3714 78.428 78.8474 77.311 78.0894 75.525C77.3494 73.7809 75.8343 72.4959 73.9663 72.1769C71.6693 71.7849 68.3163 71.3999 64.0002 71.3999C54.2211 71.3999 47.753 76.036 44.384 79.342C42.483 81.2081 41.463 83.7711 41.499 86.4351C41.581 92.6212 42.826 97.6433 43.763 100.577C43.729 101.297 43.708 102.021 43.708 102.747C43.708 111.171 45.979 118.741 50.0491 123.675C53.9331 128.383 59.5112 130.651 64.0002 130.651C68.4893 130.651 74.0673 128.384 77.9514 123.675C82.0214 118.741 84.2924 111.171 84.2924 102.747C84.2924 101.585 84.2424 100.43 84.1574 99.2854C84.8274 95.9523 85.6185 90.9082 85.7185 85.3231Z" fill="#18529E"/>
<mask id="mask0" mask-type="alpha" maskUnits="userSpaceOnUse" x="170" y="71" width="45" height="60">
<path d="M214.501 86.4349C214.537 83.7709 213.517 81.2079 211.616 79.3419C208.246 76.0359 201.779 71.3999 192 71.3999C187.685 71.3999 184.331 71.7849 182.034 72.1769C180.166 72.4959 178.651 73.7809 177.911 75.5249C177.153 77.3109 175.629 78.4289 174.15 79.1199C171.75 80.2439 170.234 82.6729 170.282 85.3229C170.382 90.9079 171.173 95.9519 171.842 99.2839C171.757 100.429 171.707 101.584 171.707 102.746C171.707 111.169 173.978 118.739 178.048 123.673C181.932 128.381 187.51 130.649 191.999 130.649C196.488 130.649 202.066 128.382 205.95 123.673C210.02 118.739 212.291 111.169 212.291 102.746C212.291 102.019 212.27 101.296 212.236 100.576C213.175 97.6429 214.419 92.6199 214.501 86.4349Z" fill="#C4C4C4"/>
</mask>
<g mask="url(#mask0)">
<rect x="169" y="70" width="47" height="62" fill="url(#paint9_linear)" fill-opacity="0.15"/>
<rect width="47" height="62" transform="matrix(-1 0 0 1 216 70)" fill="url(#paint10_linear)" fill-opacity="0.15"/>
</g>
<mask id="mask1" mask-type="alpha" maskUnits="userSpaceOnUse" x="41" y="71" width="45" height="60">
<path d="M85.7185 85.3231C85.7655 82.6741 84.2504 80.244 81.8504 79.12C80.3714 78.428 78.8474 77.311 78.0894 75.525C77.3494 73.7809 75.8343 72.4959 73.9663 72.1769C71.6693 71.7849 68.3163 71.3999 64.0002 71.3999C54.2211 71.3999 47.753 76.036 44.384 79.342C42.483 81.2081 41.463 83.7711 41.499 86.4351C41.581 92.6212 42.826 97.6433 43.763 100.577C43.729 101.297 43.708 102.021 43.708 102.747C43.708 111.171 45.979 118.741 50.0491 123.675C53.9331 128.383 59.5112 130.651 64.0002 130.651C68.4893 130.651 74.0673 128.384 77.9514 123.675C82.0214 118.741 84.2924 111.171 84.2924 102.747C84.2924 101.585 84.2424 100.43 84.1574 99.2854C84.8274 95.9523 85.6185 90.9082 85.7185 85.3231Z" fill="#C4C4C4"/>
</mask>
<g mask="url(#mask1)">
<rect x="41" y="70" width="47" height="62" fill="url(#paint11_linear)" fill-opacity="0.15"/>
<rect width="47" height="62" transform="matrix(-1 0 0 1 88 70)" fill="url(#paint12_linear)" fill-opacity="0.15"/>
</g>
<path d="M156.765 99.3921C155.063 100.76 152.926 101.972 150.432 103.003L148 118.2C150.586 117.461 152.661 116.381 154.145 115.432C156.007 114.241 157.324 112.36 157.809 110.204C158.423 107.472 158.545 104.634 158.527 102.614C158.515 101.291 157.831 100.089 156.765 99.3921Z" fill="#18529E"/>
<path d="M99.2352 99.3921C98.1692 100.09 97.4852 101.291 97.4732 102.615C97.4552 104.635 97.5772 107.472 98.1912 110.205C98.6762 112.361 99.9932 114.242 101.855 115.433C103.338 116.381 105.413 117.462 108 118.201L105.568 103.003C103.075 101.972 100.938 100.76 99.2352 99.3921Z" fill="#18529E"/>
<path d="M128 106.8C117.407 106.8 108.411 104.806 102.431 101.503C102.418 102.002 102.4 102.5 102.4 103C102.4 113.626 105.265 123.175 110.4 129.4C115.3 135.339 122.337 138.2 128 138.2C133.663 138.2 140.7 135.339 145.599 129.4C150.734 123.175 153.599 113.626 153.599 103C153.599 102.499 153.58 102.001 153.568 101.503C147.588 104.806 138.593 106.8 128 106.8Z" fill="#18529E"/>
<path d="M128 106.8C117.407 106.8 108.411 104.806 102.431 101.503C102.418 102.002 102.4 102.5 102.4 103C102.4 113.626 105.265 123.175 110.4 129.4C115.3 135.339 122.337 138.2 128 138.2C133.663 138.2 140.7 135.339 145.599 129.4C150.734 123.175 153.599 113.626 153.599 103C153.599 102.499 153.58 102.001 153.568 101.503C147.588 104.806 138.593 106.8 128 106.8Z" fill="url(#paint13_linear)" fill-opacity="0.15"/>
<path d="M128 106.8C138.593 106.8 147.588 104.806 153.568 101.503C153.581 102.002 153.599 102.5 153.599 103C153.599 113.626 150.734 123.175 145.599 129.4C140.7 135.339 133.663 138.2 128 138.2C122.337 138.2 115.3 135.339 110.4 129.4C105.265 123.175 102.4 113.626 102.4 103C102.4 102.499 102.419 102.001 102.431 101.503C108.411 104.806 117.407 106.8 128 106.8Z" fill="url(#paint14_linear)" fill-opacity="0.15"/>
<path d="M81.8504 79.12C84.2504 80.244 85.7654 82.6741 85.7184 85.3231C85.6201 90.8171 84.853 95.7877 84.1903 99.121C84.689 99.2018 85.2725 99.319 85.9164 99.4889C87.2514 99.8409 88.1864 101.059 88.1974 102.44C88.2114 104.041 88.1154 106.291 87.6284 108.456C87.2444 110.165 86.2004 111.656 84.7244 112.6C84.2073 112.931 83.5995 113.281 82.9065 113.62C81.8326 117.556 80.1559 121.002 77.9514 123.675C74.0673 128.384 68.4893 130.651 64.0002 130.651C59.5112 130.651 53.9331 128.383 50.049 123.675C47.8446 121.002 46.1679 117.556 45.0939 113.621C44.4009 113.281 43.7932 112.931 43.276 112.6C41.8 111.656 40.756 110.165 40.372 108.456C39.885 106.291 39.789 104.041 39.803 102.44C39.814 101.059 40.749 99.8409 42.084 99.4889C42.5386 99.369 42.9631 99.2753 43.3489 99.2021C42.4955 96.1919 41.5693 91.7418 41.499 86.4352C41.463 83.7711 42.483 81.2081 44.384 79.342C47.753 76.036 54.2211 71.3999 64.0002 71.3999C68.3162 71.3999 71.6693 71.7849 73.9663 72.1769C75.8343 72.4959 77.3493 73.7809 78.0894 75.525C78.8474 77.311 80.3714 78.428 81.8504 79.12Z" fill="url(#paint15_linear)" fill-opacity="0.1"/>
<path d="M48.8719 134.026C41.271 136.675 34.9351 139.258 27.2692 143.496C24.0732 145.263 22.0722 148.618 22.0732 152.27C22.0732 162.393 30.2791 170.6 40.403 170.6H62.7987V166.348C62.7987 158.949 67.1516 152.218 73.8886 149.201C80.8095 146.101 87.9734 143.244 95.2903 140.653C89.8783 137.989 84.8614 136.026 79.1255 134.026C74.5605 137.111 69.2066 138.892 63.9987 138.892C58.7908 138.892 53.4378 137.111 48.8719 134.026Z" fill="url(#paint16_linear)" fill-opacity="0.1"/>
<path d="M211.616 79.3419C213.517 81.2079 214.537 83.7709 214.501 86.4349C214.43 91.7412 213.505 96.1922 212.65 99.2019C213.036 99.2751 213.461 99.3689 213.916 99.4889C215.251 99.8409 216.186 101.059 216.197 102.44C216.211 104.041 216.115 106.291 215.628 108.456C215.244 110.165 214.2 111.656 212.724 112.6C212.207 112.931 211.598 113.282 210.904 113.622C209.83 117.556 208.154 121.001 205.95 123.673C202.066 128.382 196.488 130.649 191.999 130.649C187.51 130.649 181.932 128.381 178.048 123.673C175.844 121.001 174.167 117.555 173.093 113.62C172.401 113.281 171.793 112.93 171.276 112.6C169.8 111.656 168.756 110.165 168.372 108.456C167.885 106.291 167.789 104.041 167.803 102.44C167.814 101.059 168.749 99.8409 170.084 99.4889C170.728 99.3191 171.311 99.202 171.81 99.1211C171.148 95.7888 170.381 90.8177 170.282 85.3229C170.234 82.6729 171.75 80.2439 174.15 79.1199C175.629 78.4289 177.153 77.3109 177.911 75.5249C178.651 73.7809 180.166 72.4959 182.034 72.1769C184.331 71.7849 187.685 71.3999 192 71.3999C201.779 71.3999 208.246 76.0359 211.616 79.3419Z" fill="url(#paint17_linear)" fill-opacity="0.1"/>
<path d="M182.109 149.201C188.846 152.217 193.199 158.948 193.199 166.348V170.6H215.596C225.719 170.6 233.926 162.393 233.926 152.27C233.926 148.618 231.925 145.263 228.729 143.496C221.063 139.258 214.727 136.675 207.126 134.026C202.561 137.111 197.207 138.892 191.999 138.892C186.791 138.892 181.438 137.111 176.872 134.026C171.135 136.025 166.118 137.989 160.707 140.653C168.024 143.245 175.188 146.101 182.109 149.201Z" fill="url(#paint18_linear)" fill-opacity="0.1"/>
<path fill-rule="evenodd" clip-rule="evenodd" d="M98.8277 67.0879C106.965 61.0059 117.06 57.3999 128 57.3999C138.94 57.3999 149.035 61.0059 157.172 67.0879C159.158 68.5719 160.064 71.1039 159.54 73.5269L157.492 82.9989H98.5087L96.4607 73.5269C95.9357 71.1039 96.8417 68.5729 98.8277 67.0879ZM119.642 73.4309C121.853 75.7329 124.822 76.9999 128 76.9999C131.178 76.9999 134.147 75.7329 136.358 73.4309C136.817 72.9539 136.803 72.1939 136.325 71.7349C135.849 71.2739 135.088 71.2899 134.629 71.7689C133.156 73.3009 131.26 74.2459 129.2 74.5129V67.4669C129.914 67.0509 130.4 66.2859 130.4 65.3999C130.4 64.0749 129.326 62.9999 128 62.9999C126.674 62.9999 125.6 64.0739 125.6 65.3999C125.6 66.2859 126.085 67.0509 126.8 67.4669V74.5129C124.74 74.2449 122.844 73.2999 121.371 71.7689C120.912 71.2919 120.152 71.2749 119.675 71.7349C119.197 72.1939 119.182 72.9539 119.642 73.4309Z" fill="url(#paint19_linear)" fill-opacity="0.1"/>
<path d="M153.568 101.503C147.588 104.806 138.593 106.8 128 106.8C117.407 106.8 108.411 104.806 102.431 101.503L102.431 101.506C101.243 100.852 100.173 100.146 99.2352 99.3921C98.1692 100.09 97.4852 101.291 97.4732 102.615C97.4552 104.635 97.5772 107.472 98.1912 110.205C98.6762 112.361 99.9932 114.242 101.855 115.433C102.508 115.85 103.275 116.293 104.15 116.721C105.505 121.684 107.62 126.029 110.4 129.4C115.3 135.339 122.337 138.2 128 138.2C133.663 138.2 140.7 135.339 145.599 129.4C148.38 126.029 150.495 121.684 151.85 116.721C152.725 116.293 153.492 115.85 154.145 115.432C156.007 114.241 157.324 112.36 157.809 110.204C158.423 107.472 158.545 104.634 158.527 102.614C158.515 101.291 157.831 100.089 156.765 99.3921C155.827 100.146 154.757 100.852 153.568 101.507L153.568 101.503Z" fill="url(#paint20_linear)" fill-opacity="0.1"/>
<path d="M76.3418 154.677C71.7487 156.733 68.7997 161.315 68.7997 166.348V178.296C68.7997 181.632 70.1938 184.811 72.6278 187.093C87.1108 200.674 106.579 209 128 209C149.421 209 168.889 200.674 183.372 187.093C185.806 184.811 187.2 181.632 187.2 178.296V166.348C187.2 161.315 184.252 156.734 179.658 154.677C167.429 149.202 156.04 145.216 147.083 142.462C141.323 146.354 134.57 148.601 128 148.601C121.43 148.601 114.677 146.354 108.917 142.462C99.9599 145.216 88.5698 149.201 76.3418 154.677Z" fill="url(#paint21_linear)" fill-opacity="0.1"/>
<path d="M158.401 90.9999C158.401 90.4579 158.309 89.9249 158.15 89.3999H97.8512C97.6922 89.9249 97.6002 90.4579 97.6002 90.9999C97.6002 98.0689 110.769 103.8 128.001 103.8C145.232 103.8 158.401 98.0689 158.401 90.9999Z" fill="url(#paint22_linear)" fill-opacity="0.1"/>
<path d="M97.4732 102.615C97.4852 101.291 98.1692 100.09 99.2352 99.3921C100.173 100.146 101.243 100.852 102.431 101.506L102.431 101.503C108.411 104.806 117.407 106.8 128 106.8C138.593 106.8 147.588 104.806 153.568 101.503L153.568 101.507C154.757 100.852 155.827 100.146 156.765 99.3921C157.831 100.089 158.515 101.291 158.527 102.614C158.545 104.634 158.423 107.472 157.809 110.204C157.324 112.36 156.007 114.241 154.145 115.432C153.492 115.85 152.725 116.293 151.85 116.721C150.495 121.684 148.38 126.029 145.599 129.4C140.7 135.339 133.663 138.2 128 138.2C122.337 138.2 115.3 135.339 110.4 129.4C107.62 126.029 105.505 121.684 104.15 116.721C103.275 116.293 102.508 115.85 101.855 115.433C99.9932 114.242 98.6762 112.361 98.1912 110.205C97.5772 107.472 97.4552 104.635 97.4732 102.615Z" fill="url(#paint23_linear)" fill-opacity="0.5"/>
<g filter="url(#filter3_i)">
<path d="M76.3418 154.677C71.7487 156.733 68.7997 161.315 68.7997 166.348V178.296C68.7997 181.632 70.1938 184.811 72.6278 187.093C87.1108 200.674 106.579 209 128 209C149.421 209 168.889 200.674 183.372 187.093C185.806 184.811 187.2 181.632 187.2 178.296V166.348C187.2 161.315 184.252 156.734 179.658 154.677C167.429 149.202 156.04 145.216 147.083 142.462C141.323 146.354 134.57 148.601 128 148.601C121.43 148.601 114.677 146.354 108.917 142.462C99.9599 145.216 88.5698 149.201 76.3418 154.677Z" fill="black" fill-opacity="0.01"/>
<path d="M48.8719 134.026C41.271 136.675 34.9351 139.258 27.2692 143.496C24.0732 145.263 22.0722 148.618 22.0732 152.27C22.0732 162.393 30.2791 170.6 40.403 170.6H62.7987V166.348C62.7987 158.949 67.1516 152.218 73.8886 149.201C80.8095 146.101 87.9734 143.244 95.2903 140.653C89.8783 137.989 84.8614 136.026 79.1255 134.026C74.5605 137.111 69.2066 138.892 63.9987 138.892C58.7908 138.892 53.4378 137.111 48.8719 134.026Z" fill="black" fill-opacity="0.01"/>
<path d="M182.109 149.201C188.846 152.217 193.199 158.948 193.199 166.348V170.6H215.596C225.719 170.6 233.926 162.393 233.926 152.27C233.926 148.618 231.925 145.263 228.729 143.496C221.063 139.258 214.727 136.675 207.126 134.026C202.561 137.111 197.207 138.892 191.999 138.892C186.791 138.892 181.438 137.111 176.872 134.026C171.135 136.025 166.118 137.989 160.707 140.653C168.024 143.245 175.188 146.101 182.109 149.201Z" fill="black" fill-opacity="0.01"/>
</g>
<path d="M81.8504 79.12C84.2504 80.244 85.7654 82.6741 85.7184 85.3231C85.6201 90.8171 84.853 95.7877 84.1903 99.121C84.689 99.2018 85.2725 99.319 85.9164 99.4889C87.2514 99.8409 88.1864 101.059 88.1974 102.44C88.2114 104.041 88.1154 106.291 87.6284 108.456C87.2444 110.165 86.2004 111.656 84.7244 112.6C84.2073 112.931 83.5995 113.281 82.9065 113.62C81.8326 117.556 80.1559 121.002 77.9514 123.675C74.0673 128.384 68.4893 130.651 64.0002 130.651C59.5112 130.651 53.9331 128.383 50.049 123.675C47.8446 121.002 46.1679 117.556 45.0939 113.621C44.4009 113.281 43.7932 112.931 43.276 112.6C41.8 111.656 40.756 110.165 40.372 108.456C39.885 106.291 39.789 104.041 39.803 102.44C39.814 101.059 40.749 99.8409 42.084 99.4889C42.5386 99.369 42.9631 99.2753 43.3489 99.2021C42.4955 96.1919 41.5693 91.7418 41.499 86.4352C41.463 83.7711 42.483 81.2081 44.384 79.342C47.753 76.036 54.2211 71.3999 64.0002 71.3999C68.3162 71.3999 71.6693 71.7849 73.9663 72.1769C75.8343 72.4959 77.3493 73.7809 78.0894 75.525C78.8474 77.311 80.3714 78.428 81.8504 79.12Z" fill="#D0D4D6" fill-opacity="0.3"/>
<path d="M48.8719 134.026C41.271 136.675 34.9351 139.258 27.2692 143.496C24.0732 145.263 22.0722 148.618 22.0732 152.27C22.0732 162.393 30.2791 170.6 40.403 170.6H62.7987V166.348C62.7987 158.949 67.1516 152.218 73.8886 149.201C80.8095 146.101 87.9734 143.244 95.2903 140.653C89.8783 137.989 84.8614 136.026 79.1255 134.026C74.5605 137.111 69.2066 138.892 63.9987 138.892C58.7908 138.892 53.4378 137.111 48.8719 134.026Z" fill="#D0D4D6" fill-opacity="0.3"/>
<path d="M211.616 79.3419C213.517 81.2079 214.537 83.7709 214.501 86.4349C214.43 91.7412 213.505 96.1922 212.65 99.2019C213.036 99.2751 213.461 99.3689 213.916 99.4889C215.251 99.8409 216.186 101.059 216.197 102.44C216.211 104.041 216.115 106.291 215.628 108.456C215.244 110.165 214.2 111.656 212.724 112.6C212.207 112.931 211.598 113.282 210.904 113.622C209.83 117.556 208.154 121.001 205.95 123.673C202.066 128.382 196.488 130.649 191.999 130.649C187.51 130.649 181.932 128.381 178.048 123.673C175.844 121.001 174.167 117.555 173.093 113.62C172.401 113.281 171.793 112.93 171.276 112.6C169.8 111.656 168.756 110.165 168.372 108.456C167.885 106.291 167.789 104.041 167.803 102.44C167.814 101.059 168.749 99.8409 170.084 99.4889C170.728 99.3191 171.311 99.202 171.81 99.1211C171.148 95.7888 170.381 90.8177 170.282 85.3229C170.234 82.6729 171.75 80.2439 174.15 79.1199C175.629 78.4289 177.153 77.3109 177.911 75.5249C178.651 73.7809 180.166 72.4959 182.034 72.1769C184.331 71.7849 187.685 71.3999 192 71.3999C201.779 71.3999 208.246 76.0359 211.616 79.3419Z" fill="#D0D4D6" fill-opacity="0.3"/>
<path d="M182.109 149.201C188.846 152.217 193.199 158.948 193.199 166.348V170.6H215.596C225.719 170.6 233.926 162.393 233.926 152.27C233.926 148.618 231.925 145.263 228.729 143.496C221.063 139.258 214.727 136.675 207.126 134.026C202.561 137.111 197.207 138.892 191.999 138.892C186.791 138.892 181.438 137.111 176.872 134.026C171.135 136.025 166.118 137.989 160.707 140.653C168.024 143.245 175.188 146.101 182.109 149.201Z" fill="#D0D4D6" fill-opacity="0.3"/>
<path fill-rule="evenodd" clip-rule="evenodd" d="M253 128C253 197.036 197.036 253 128 253C58.9644 253 3 197.036 3 128C3 58.9644 58.9644 3 128 3C197.036 3 253 58.9644 253 128ZM252 128C252 196.483 196.483 252 128 252C59.5167 252 4 196.483 4 128C4 59.5167 59.5167 4 128 4C196.483 4 252 59.5167 252 128Z" fill="url(#paint24_linear)" fill-opacity="0.15"/>
<rect x="98" y="82" width="60" height="7" rx="1" fill="#FAC93C"/>
<rect x="98" y="82" width="60" height="7" rx="1" fill="url(#paint25_linear)" fill-opacity="0.5"/>
<rect width="60" height="7" rx="1" transform="matrix(-1 0 0 1 158 82)" fill="url(#paint26_linear)" fill-opacity="0.5"/>
<g filter="url(#filter4_i)">
<circle cx="128" cy="71" r="10" fill="#031833"/>
<circle cx="128" cy="71" r="10" fill="url(#paint27_linear)" fill-opacity="0.1"/>
</g>
<path d="M122.03 72.9507C123.609 74.595 125.73 75.5 128 75.5C130.27 75.5 132.391 74.595 133.97 72.9507C134.298 72.61 134.288 72.0671 133.947 71.7393C133.607 71.41 133.063 71.4214 132.735 71.7636C131.683 72.8579 130.329 73.5329 128.857 73.7236V68.6907C129.367 68.3936 129.714 67.8471 129.714 67.2143C129.714 66.2679 128.947 65.5 128 65.5C127.053 65.5 126.286 66.2671 126.286 67.2143C126.286 67.8471 126.632 68.3936 127.143 68.6907V73.7236C125.672 73.5321 124.317 72.8571 123.265 71.7636C122.937 71.4229 122.394 71.4107 122.054 71.7393C121.712 72.0671 121.702 72.61 122.03 72.9507Z" fill="#FAC93C"/>
</g>
<defs>
<filter id="filter0_d" x="1" y="2.33" width="254" height="254" filterUnits="userSpaceOnUse" color-interpolation-filters="sRGB">
<feFlood flood-opacity="0" result="BackgroundImageFix"/>
<feColorMatrix in="SourceAlpha" type="matrix" values="0 0 0 0 0 0 0 0 0 0 0 0 0 0 0 0 0 0 127 0"/>
<feOffset dy="1.33"/>
<feGaussianBlur stdDeviation="1"/>
<feColorMatrix type="matrix" values="0 0 0 0 0 0 0 0 0 0 0 0 0 0 0 0 0 0 0.2 0"/>
<feBlend mode="normal" in2="BackgroundImageFix" result="effect1_dropShadow"/>
<feBlend mode="normal" in="SourceGraphic" in2="effect1_dropShadow" result="shape"/>
</filter>
<filter id="filter1_iii" x="3" y="-5" width="250" height="261" filterUnits="userSpaceOnUse" color-interpolation-filters="sRGB">
<feFlood flood-opacity="0" result="BackgroundImageFix"/>
<feBlend mode="normal" in="SourceGraphic" in2="BackgroundImageFix" result="shape"/>
<feColorMatrix in="SourceAlpha" type="matrix" values="0 0 0 0 0 0 0 0 0 0 0 0 0 0 0 0 0 0 127 0" result="hardAlpha"/>
<feOffset dy="-8"/>
<feGaussianBlur stdDeviation="7.5"/>
<feComposite in2="hardAlpha" operator="arithmetic" k2="-1" k3="1"/>
<feColorMatrix type="matrix" values="0 0 0 0 0 0 0 0 0 0 0 0 0 0 0 0 0 0 0.02 0"/>
<feBlend mode="normal" in2="shape" result="effect1_innerShadow"/>
<feColorMatrix in="SourceAlpha" type="matrix" values="0 0 0 0 0 0 0 0 0 0 0 0 0 0 0 0 0 0 127 0" result="hardAlpha"/>
<feOffset dy="-3"/>
<feGaussianBlur stdDeviation="2.5"/>
<feComposite in2="hardAlpha" operator="arithmetic" k2="-1" k3="1"/>
<feColorMatrix type="matrix" values="0 0 0 0 0 0 0 0 0 0 0 0 0 0 0 0 0 0 0.08 0"/>
<feBlend mode="normal" in2="effect1_innerShadow" result="effect2_innerShadow"/>
<feColorMatrix in="SourceAlpha" type="matrix" values="0 0 0 0 0 0 0 0 0 0 0 0 0 0 0 0 0 0 127 0" result="hardAlpha"/>
<feOffset dy="3"/>
<feGaussianBlur stdDeviation="2.5"/>
<feComposite in2="hardAlpha" operator="arithmetic" k2="-1" k3="1"/>
<feColorMatrix type="matrix" values="0 0 0 0 1 0 0 0 0 1 0 0 0 0 1 0 0 0 0.15 0"/>
<feBlend mode="normal" in2="effect2_innerShadow" result="effect3_innerShadow"/>
</filter>
<filter id="filter2_ii" x="97.6002" y="89.3999" width="60.801" height="14.4" filterUnits="userSpaceOnUse" color-interpolation-filters="sRGB">
<feFlood flood-opacity="0" result="BackgroundImageFix"/>
<feBlend mode="normal" in="SourceGraphic" in2="BackgroundImageFix" result="shape"/>
<feColorMatrix in="SourceAlpha" type="matrix" values="0 0 0 0 0 0 0 0 0 0 0 0 0 0 0 0 0 0 127 0" result="hardAlpha"/>
<feOffset dy="-1"/>
<feComposite in2="hardAlpha" operator="arithmetic" k2="-1" k3="1"/>
<feColorMatrix type="matrix" values="0 0 0 0 1 0 0 0 0 1 0 0 0 0 1 0 0 0 0.1 0"/>
<feBlend mode="normal" in2="shape" result="effect1_innerShadow"/>
<feColorMatrix in="SourceAlpha" type="matrix" values="0 0 0 0 0 0 0 0 0 0 0 0 0 0 0 0 0 0 127 0" result="hardAlpha"/>
<feOffset dy="1"/>
<feComposite in2="hardAlpha" operator="arithmetic" k2="-1" k3="1"/>
<feColorMatrix type="matrix" values="0 0 0 0 0 0 0 0 0 0 0 0 0 0 0 0 0 0 0.3 0"/>
<feBlend mode="normal" in2="effect1_innerShadow" result="effect2_innerShadow"/>
</filter>
<filter id="filter3_i" x="22.0732" y="126.026" width="211.853" height="82.9738" filterUnits="userSpaceOnUse" color-interpolation-filters="sRGB">
<feFlood flood-opacity="0" result="BackgroundImageFix"/>
<feBlend mode="normal" in="SourceGraphic" in2="BackgroundImageFix" result="shape"/>
<feColorMatrix in="SourceAlpha" type="matrix" values="0 0 0 0 0 0 0 0 0 0 0 0 0 0 0 0 0 0 127 0" result="hardAlpha"/>
<feOffset dy="-8"/>
<feGaussianBlur stdDeviation="7.5"/>
<feComposite in2="hardAlpha" operator="arithmetic" k2="-1" k3="1"/>
<feColorMatrix type="matrix" values="0 0 0 0 1 0 0 0 0 1 0 0 0 0 1 0 0 0 0.05 0"/>
<feBlend mode="normal" in2="shape" result="effect1_innerShadow"/>
</filter>
<filter id="filter4_i" x="118" y="61" width="20" height="20" filterUnits="userSpaceOnUse" color-interpolation-filters="sRGB">
<feFlood flood-opacity="0" result="BackgroundImageFix"/>
<feBlend mode="normal" in="SourceGraphic" in2="BackgroundImageFix" result="shape"/>
<feColorMatrix in="SourceAlpha" type="matrix" values="0 0 0 0 0 0 0 0 0 0 0 0 0 0 0 0 0 0 127 0" result="hardAlpha"/>
<feOffset dy="1"/>
<feComposite in2="hardAlpha" operator="arithmetic" k2="-1" k3="1"/>
<feColorMatrix type="matrix" values="0 0 0 0 1 0 0 0 0 1 0 0 0 0 1 0 0 0 0.1 0"/>
<feBlend mode="normal" in2="shape" result="effect1_innerShadow"/>
</filter>
<linearGradient id="paint0_linear" x1="128" y1="90" x2="128" y2="284" gradientUnits="userSpaceOnUse">
<stop stop-color="white"/>
<stop offset="1"/>
</linearGradient>
<linearGradient id="paint1_linear" x1="77.9556" y1="67.0327" x2="119.436" y2="67.0327" gradientUnits="userSpaceOnUse">
<stop stop-color="#C7DAF3"/>
<stop offset="1" stop-color="#C7DAF3" stop-opacity="0"/>
</linearGradient>
<linearGradient id="paint2_linear" x1="178.044" y1="67.0327" x2="136.564" y2="67.0327" gradientUnits="userSpaceOnUse">
<stop stop-color="#C7DAF3"/>
<stop offset="1" stop-color="#C7DAF3" stop-opacity="0"/>
</linearGradient>
<linearGradient id="paint3_linear" x1="79.9866" y1="94.8186" x2="119.784" y2="94.8186" gradientUnits="userSpaceOnUse">
<stop stop-color="white"/>
<stop offset="1" stop-color="white" stop-opacity="0"/>
</linearGradient>
<linearGradient id="paint4_linear" x1="176.015" y1="94.8186" x2="136.217" y2="94.8186" gradientUnits="userSpaceOnUse">
<stop stop-color="white"/>
<stop offset="1" stop-color="white" stop-opacity="0"/>
</linearGradient>
<linearGradient id="paint5_linear" x1="34.5" y1="167.5" x2="112" y2="167.5" gradientUnits="userSpaceOnUse">
<stop stop-color="white"/>
<stop offset="1" stop-color="white" stop-opacity="0"/>
</linearGradient>
<linearGradient id="paint6_linear" x1="221.5" y1="167.5" x2="144" y2="167.5" gradientUnits="userSpaceOnUse">
<stop stop-color="white"/>
<stop offset="1" stop-color="white" stop-opacity="0"/>
</linearGradient>
<linearGradient id="paint7_linear" x1="-39.299" y1="147.789" x2="99.3711" y2="147.789" gradientUnits="userSpaceOnUse">
<stop stop-color="white"/>
<stop offset="1" stop-color="white" stop-opacity="0"/>
</linearGradient>
<linearGradient id="paint8_linear" x1="295.299" y1="147.789" x2="156.628" y2="147.789" gradientUnits="userSpaceOnUse">
<stop stop-color="white"/>
<stop offset="1" stop-color="white" stop-opacity="0"/>
</linearGradient>
<linearGradient id="paint9_linear" x1="155.384" y1="93.3304" x2="186.149" y2="93.3304" gradientUnits="userSpaceOnUse">
<stop stop-color="white"/>
<stop offset="1" stop-color="white" stop-opacity="0"/>
</linearGradient>
<linearGradient id="paint10_linear" x1="-13.6156" y1="23.3304" x2="17.1487" y2="23.3304" gradientUnits="userSpaceOnUse">
<stop stop-color="white"/>
<stop offset="1" stop-color="white" stop-opacity="0"/>
</linearGradient>
<linearGradient id="paint11_linear" x1="27.3844" y1="93.3304" x2="58.1487" y2="93.3304" gradientUnits="userSpaceOnUse">
<stop stop-color="white"/>
<stop offset="1" stop-color="white" stop-opacity="0"/>
</linearGradient>
<linearGradient id="paint12_linear" x1="-13.6156" y1="23.3304" x2="17.1487" y2="23.3304" gradientUnits="userSpaceOnUse">
<stop stop-color="white"/>
<stop offset="1" stop-color="white" stop-opacity="0"/>
</linearGradient>
<linearGradient id="paint13_linear" x1="87.5683" y1="115.312" x2="121.081" y2="115.312" gradientUnits="userSpaceOnUse">
<stop stop-color="white"/>
<stop offset="1" stop-color="white" stop-opacity="0"/>
</linearGradient>
<linearGradient id="paint14_linear" x1="168.431" y1="115.312" x2="134.919" y2="115.312" gradientUnits="userSpaceOnUse">
<stop stop-color="white"/>
<stop offset="1" stop-color="white" stop-opacity="0"/>
</linearGradient>
<linearGradient id="paint15_linear" x1="58.6818" y1="52.5" x2="58.6818" y2="157.5" gradientUnits="userSpaceOnUse">
<stop stop-color="white"/>
<stop offset="1" stop-color="white" stop-opacity="0"/>
</linearGradient>
<linearGradient id="paint16_linear" x1="58.6818" y1="52.5" x2="58.6818" y2="157.5" gradientUnits="userSpaceOnUse">
<stop stop-color="white"/>
<stop offset="1" stop-color="white" stop-opacity="0"/>
</linearGradient>
<linearGradient id="paint17_linear" x1="197.317" y1="52.5" x2="197.317" y2="157.5" gradientUnits="userSpaceOnUse">
<stop stop-color="white"/>
<stop offset="1" stop-color="white" stop-opacity="0"/>
</linearGradient>
<linearGradient id="paint18_linear" x1="197.317" y1="52.5" x2="197.317" y2="157.5" gradientUnits="userSpaceOnUse">
<stop stop-color="white"/>
<stop offset="1" stop-color="white" stop-opacity="0"/>
</linearGradient>
<linearGradient id="paint19_linear" x1="128" y1="28.5166" x2="128" y2="188.98" gradientUnits="userSpaceOnUse">
<stop stop-color="white"/>
<stop offset="1" stop-color="white" stop-opacity="0"/>
</linearGradient>
<linearGradient id="paint20_linear" x1="128" y1="28.5166" x2="128" y2="188.98" gradientUnits="userSpaceOnUse">
<stop stop-color="white"/>
<stop offset="1" stop-color="white" stop-opacity="0"/>
</linearGradient>
<linearGradient id="paint21_linear" x1="128" y1="28.5166" x2="128" y2="188.98" gradientUnits="userSpaceOnUse">
<stop stop-color="white"/>
<stop offset="1" stop-color="white" stop-opacity="0"/>
</linearGradient>
<linearGradient id="paint22_linear" x1="128" y1="28.5166" x2="128" y2="188.98" gradientUnits="userSpaceOnUse">
<stop stop-color="white"/>
<stop offset="1" stop-color="white" stop-opacity="0"/>
</linearGradient>
<linearGradient id="paint23_linear" x1="128" y1="80.3536" x2="128" y2="127.413" gradientUnits="userSpaceOnUse">
<stop/>
<stop offset="1" stop-opacity="0"/>
</linearGradient>
<linearGradient id="paint24_linear" x1="128" y1="128" x2="128" y2="253" gradientUnits="userSpaceOnUse">
<stop stop-opacity="0"/>
<stop offset="1"/>
</linearGradient>
<linearGradient id="paint25_linear" x1="80.6184" y1="84.6341" x2="119.892" y2="84.6341" gradientUnits="userSpaceOnUse">
<stop stop-color="#E7AB00"/>
<stop offset="1" stop-color="#E7AB00" stop-opacity="0"/>
</linearGradient>
<linearGradient id="paint26_linear" x1="-17.3816" y1="2.63408" x2="21.8919" y2="2.63409" gradientUnits="userSpaceOnUse">
<stop stop-color="#E7AB00"/>
<stop offset="1" stop-color="#E7AB00" stop-opacity="0"/>
</linearGradient>
<linearGradient id="paint27_linear" x1="128" y1="48.5" x2="128" y2="78.625" gradientUnits="userSpaceOnUse">
<stop stop-color="white"/>
<stop offset="1" stop-color="white" stop-opacity="0"/>
</linearGradient>
<clipPath id="clip0">
<rect width="256" height="256" fill="white"/>
</clipPath>
</defs>
</svg>
