<svg width="256" height="256" viewBox="0 0 256 256" fill="none" xmlns="http://www.w3.org/2000/svg">
    <g filter="url(#filter0_d)">
        <path d="M144.482 6.7251C67.6349 6.7251 23.3931 34.654 21.5479 35.8439C16.8954 38.8437 13.5741 43.7453 12.576 49.1959C-8.50432 163.964 34.0173 231.667 35.8395 234.492C38.8348 239.138 43.7393 242.436 49.1769 243.433C70.2972 247.31 91.2955 249.275 111.596 249.275C188.42 249.275 232.659 221.346 234.507 220.156C239.158 217.162 242.485 212.21 243.482 206.771C252.055 160.094 251.097 113.921 240.714 73.2342C237.912 62.259 234.39 51.4518 229.998 41.0076C227.548 35.184 224.848 29.4404 221.697 23.9598C218.374 18.1832 213.685 13.8076 206.925 12.5667C185.795 8.69395 164.788 6.7251 144.482 6.7251Z" fill="black" fill-opacity="0.01" />
    </g>
    <g filter="url(#filter1_ii)">
        <path d="M144.482 6.72498C67.6349 6.72498 23.3931 34.6539 21.5479 35.8438C16.8954 38.8436 13.5741 43.7452 12.576 49.1958C-8.50431 163.964 34.0173 231.667 35.8395 234.492C38.8348 239.138 43.7393 242.435 49.1769 243.432C70.2972 247.31 91.2955 249.275 111.596 249.275C188.42 249.275 232.659 221.346 234.507 220.156C239.158 217.162 242.485 212.21 243.482 206.771C252.055 160.094 251.097 113.921 240.714 73.234C237.912 62.2589 234.39 51.4517 229.998 41.0074C227.548 35.1839 224.848 29.4403 221.697 23.9597C218.374 18.1831 213.685 13.8075 206.925 12.5665C185.795 8.69383 164.788 6.72498 144.482 6.72498Z" fill="white" />
        <path d="M144.482 6.72498C67.6349 6.72498 23.3931 34.6539 21.5479 35.8438C16.8954 38.8436 13.5741 43.7452 12.576 49.1958C-8.50431 163.964 34.0173 231.667 35.8395 234.492C38.8348 239.138 43.7393 242.435 49.1769 243.432C70.2972 247.31 91.2955 249.275 111.596 249.275C188.42 249.275 232.659 221.346 234.507 220.156C239.158 217.162 242.485 212.21 243.482 206.771C252.055 160.094 251.097 113.921 240.714 73.234C237.912 62.2589 234.39 51.4517 229.998 41.0074C227.548 35.1839 224.848 29.4403 221.697 23.9597C218.374 18.1831 213.685 13.8075 206.925 12.5665C185.795 8.69383 164.788 6.72498 144.482 6.72498Z" fill="url(#paint0_linear)" fill-opacity="0.02" />
    </g>
    <path d="M207.015 12.0748L207.015 12.0747C185.857 8.1969 164.82 6.22498 144.482 6.22498C67.5118 6.22498 23.1768 34.1984 21.277 35.4236C16.5103 38.497 13.1075 43.5171 12.0842 49.1058C-9.02605 164.038 33.5527 231.869 35.4193 234.763C38.4889 239.524 43.5125 242.902 49.0868 243.924C70.235 247.807 91.2635 249.775 111.596 249.775C188.544 249.775 232.876 221.801 234.778 220.577C239.544 217.508 242.952 212.436 243.974 206.861C252.558 160.122 251.601 113.876 241.198 73.1104C238.391 62.1142 234.862 51.2833 230.458 40.8136C228.004 34.9779 225.295 29.2144 222.13 23.7105L221.697 23.9597L222.13 23.7104C218.76 17.8514 213.964 13.3503 207.015 12.0748Z" stroke="black" stroke-opacity="0.1" stroke-linejoin="round" />
    <path d="M32.4504 52.781C62.1131 69.2572 89.3613 82.457 113.223 92.9604C132.178 101.316 148.984 107.963 163.047 113.152C173.567 89.3077 186.784 62.0303 203.246 32.3856C94.9583 12.5076 32.4504 52.781 32.4504 52.781Z" fill="url(#paint1_linear)" />
    <path d="M223.548 203.215C181.63 179.792 137.98 159.609 92.9828 142.844C82.4629 166.688 69.3248 193.965 52.8003 223.61C161.041 243.488 223.548 203.215 223.548 203.215Z" fill="url(#paint2_linear)" />
    <path d="M32.5129 52.8285H32.3874C12.5078 161.076 52.7687 223.579 52.7687 223.579C69.3246 193.966 82.4627 166.688 92.9826 142.844C101.355 123.86 108.002 107.039 113.223 92.9608C89.361 82.4575 62.1128 69.2577 32.5129 52.8285Z" fill="url(#paint3_linear)" />
    <path d="M203.214 32.3861C186.752 62.0307 173.536 89.3082 163.016 113.152C136.928 172.348 127.568 210.348 126.957 210.615C126.957 210.615 173.097 221.04 223.611 203.137C243.491 94.8891 203.214 32.3861 203.214 32.3861Z" fill="url(#paint4_linear)" />
    <path d="M32.5914 52.8292C62.1914 69.2584 89.4396 82.4582 113.223 92.9616C124.198 63.1759 128.666 45.5396 129.073 45.3828C129.136 45.3828 83.043 34.9735 32.5914 52.8292Z" fill="url(#paint5_linear)" />
    <path d="M45.2906 126.807C45.2906 126.807 34.8334 172.943 52.7689 223.454C69.2307 193.809 82.4472 166.531 92.9514 142.687C63.0536 131.682 45.4473 127.214 45.2906 126.807Z" fill="url(#paint6_linear)" fill-opacity="0.8" />
    <path d="M126.957 210.614C126.957 210.614 173.034 221.024 223.501 203.183C193.901 186.739 166.653 173.539 142.823 163.035C131.833 192.852 127.333 210.457 126.957 210.614Z" fill="url(#paint7_linear)" />
    <path d="M203.167 32.3861C186.705 62.0151 173.489 89.2925 162.985 113.152C192.851 124.126 210.489 128.625 210.646 129.033C210.646 129.049 221.071 82.8965 203.167 32.3861Z" fill="url(#paint8_linear)" />
    <path d="M203.23 32.4121C203.235 32.4032 203.24 32.3944 203.246 32.3855C94.9572 12.5074 32.4495 52.7806 32.4495 52.7806L32.3863 52.8287C12.5069 161.076 52.7676 223.579 52.7676 223.579L52.7992 223.609C161.04 243.487 223.547 203.214 223.547 203.214L223.61 203.136C243.253 96.1785 204.164 33.8809 203.23 32.4121ZM142.805 163.044C126.399 155.841 109.784 149.103 92.9815 142.844C101.354 123.859 108.002 107.039 113.222 92.9616C132.153 101.307 148.94 107.945 162.992 113.132C162.99 113.138 162.986 113.146 162.984 113.152C162.992 113.156 163.003 113.158 163.011 113.162C154.641 132.154 147.993 148.963 142.805 163.044Z" fill="url(#paint9_linear)" fill-opacity="0.08" />
    <path d="M162.992 113.132L162.994 113.129L163.232 112.571C163.229 112.569 163.226 112.568 163.223 112.567C163.214 112.564 163.208 112.561 163.204 112.559M162.992 113.132L163.204 112.559M162.992 113.132L162.471 112.924L162.433 112.907C162.433 112.908 162.433 112.908 162.432 112.908L162.405 112.898C162.409 112.889 162.411 112.883 162.412 112.881C162.413 112.879 162.414 112.878 162.413 112.88L162.992 113.132ZM163.204 112.559C163.2 112.558 163.198 112.558 163.197 112.557C163.194 112.556 163.198 112.557 163.202 112.559C163.203 112.559 163.203 112.559 163.204 112.559ZM77.3985 35.7405C106.425 28.1924 148.924 23.1058 202.822 32.9505C205.383 37.0883 242.078 98.6984 223.031 202.792C222.912 202.866 222.733 202.976 222.494 203.119C222.016 203.406 221.298 203.825 220.344 204.353C218.436 205.408 215.586 206.896 211.826 208.622C204.304 212.073 193.143 216.473 178.604 220.254C149.574 227.805 107.071 232.892 53.1724 223.035C53.0991 222.917 52.995 222.747 52.8625 222.526C52.5761 222.047 52.1569 221.329 51.6295 220.376C50.5747 218.468 49.0869 215.618 47.3619 211.858C43.912 204.337 39.5138 193.176 35.7339 178.637C28.1869 149.609 23.103 107.106 32.9597 53.2063C32.9617 53.205 32.9638 53.2037 32.9659 53.2024C33.0845 53.1286 33.2637 53.0186 33.5028 52.8754C33.981 52.5889 34.699 52.1696 35.6528 51.642C37.5604 50.5869 40.411 49.0985 44.1719 47.373C51.6937 43.9219 62.8563 39.522 77.3985 35.7405ZM142.55 163.623C142.71 163.693 142.891 163.694 143.052 163.626C143.212 163.558 143.337 163.426 143.398 163.263C148.582 149.193 155.225 132.396 163.59 113.417C163.658 113.262 163.661 113.087 163.599 112.93C163.583 112.888 163.562 112.849 163.538 112.812C163.464 112.687 163.349 112.59 163.211 112.539C149.17 107.356 132.395 100.723 113.477 92.3832C113.318 92.313 113.137 92.3116 112.976 92.3795C112.816 92.4474 112.69 92.5785 112.63 92.7418C107.413 106.809 100.77 123.618 92.4032 142.589C92.333 142.748 92.3315 142.929 92.3992 143.09C92.4669 143.25 92.5977 143.375 92.7609 143.436C109.552 149.691 126.156 156.424 142.55 163.623ZM162.798 113.757C162.801 113.758 162.797 113.756 162.793 113.755L162.798 113.757Z" stroke="black" stroke-opacity="0.15" stroke-width="1.26403" stroke-linejoin="round" />
    <g filter="url(#filter2_i)">
        <path d="M53.9588 221.892C154.046 240.031 215.088 206.049 221.888 202.004C240.129 101.406 206.427 41.3606 202.039 34.0937C146.954 24.1269 104.158 30.1121 77.9032 36.9163C52.4938 43.5006 37.2838 52.0909 34.1023 53.992C24.1228 109.076 30.1067 151.878 36.9097 178.132C43.4687 203.448 52.0173 218.637 53.9588 221.892Z" fill="white" fill-opacity="0.01" />
    </g>
    <mask id="mask0" mask-type="alpha" maskUnits="userSpaceOnUse" x="26" y="26" width="204" height="204">
        <path d="M203.23 32.4121C203.235 32.4032 203.24 32.3944 203.246 32.3855C94.9572 12.5074 32.4495 52.7806 32.4495 52.7806L32.3863 52.8287C12.5069 161.076 52.7676 223.579 52.7676 223.579L52.7992 223.609C161.04 243.487 223.547 203.214 223.547 203.214L223.61 203.136C243.253 96.1785 204.164 33.8809 203.23 32.4121ZM142.805 163.044C126.399 155.841 109.784 149.103 92.9815 142.844C101.354 123.859 108.002 107.039 113.222 92.9616C132.153 101.307 148.94 107.945 162.992 113.132C162.99 113.138 162.986 113.146 162.984 113.152C162.992 113.156 163.003 113.158 163.011 113.162C154.641 132.154 147.993 148.963 142.805 163.044Z" fill="#C4C4C4" />
    </mask>
    <g mask="url(#mask0)">
        <g filter="url(#filter3_d)">
            <path d="M142.804 164.94C142.545 164.94 142.285 164.887 142.042 164.78C125.721 157.615 108.993 150.832 92.3194 144.621C91.8302 144.439 91.4371 144.063 91.2348 143.582C91.0313 143.102 91.0364 142.557 91.2462 142.08C98.4929 125.649 105.288 108.902 111.444 92.3042C111.626 91.8137 112.001 91.4206 112.483 91.2171C112.965 91.0136 113.508 91.0174 113.986 91.2285C130.624 98.5623 147.332 105.334 163.647 111.354C164.122 111.53 164.508 111.888 164.718 112.35C164.723 112.362 164.728 112.373 164.734 112.384C164.954 112.875 164.963 113.437 164.747 113.929C157.366 130.675 150.582 147.421 144.583 163.701C144.402 164.192 144.028 164.586 143.546 164.791C143.309 164.889 143.056 164.94 142.804 164.94Z" fill="white" fill-opacity="0.01" />
        </g>
    </g>
    <g filter="url(#filter4_i)">
        <path d="M203.23 32.4121C203.235 32.4032 203.24 32.3944 203.246 32.3855C94.9572 12.5074 32.4495 52.7806 32.4495 52.7806L32.3863 52.8287C12.5069 161.076 52.7676 223.579 52.7676 223.579L52.7992 223.609C161.04 243.487 223.547 203.214 223.547 203.214L223.61 203.136C243.253 96.1785 204.164 33.8809 203.23 32.4121Z" fill="black" fill-opacity="0.01" />
    </g>
    <path d="M210.441 126.803C210.334 127.383 210.243 127.846 210.174 128.187C209.437 127.93 208.154 127.511 206.07 126.88L206.07 126.88C198.94 124.724 184.064 120.2 163.207 112.538C149.165 107.356 132.391 100.72 113.473 92.3808L113.473 92.3807C89.8816 81.9971 62.9778 68.9751 33.7009 52.7535C34.1705 52.475 34.8201 52.0991 35.6468 51.6417C37.5535 50.5871 40.4027 49.0994 44.1617 47.3745C51.6797 43.9248 62.8367 39.5264 77.3717 35.7451C106.375 28.2 148.835 23.1103 202.684 32.9245C211.509 57.9837 213.36 81.9158 212.995 99.6213C212.812 108.501 212.072 115.811 211.376 120.905C211.028 123.452 210.691 125.445 210.441 126.803Z" stroke="black" stroke-opacity="0.1" stroke-width="1.26403" stroke-linecap="round" stroke-linejoin="round" />
    <path d="M127.835 210.154C127.938 209.849 128.065 209.451 128.215 208.966C128.442 208.233 128.728 207.284 129.076 206.131C129.289 205.424 129.525 204.64 129.785 203.782C131.155 199.26 133.196 192.642 136.032 184.183C141.704 167.266 150.559 142.985 163.594 113.408C173.995 89.8345 187.033 62.902 203.24 33.6425C203.519 34.1124 203.895 34.7623 204.353 35.5896C205.408 37.4971 206.897 40.3473 208.622 44.1077C212.074 51.6284 216.474 62.7891 220.256 77.3282C227.802 106.34 232.888 148.809 223.055 202.663C198.014 211.477 174.07 213.323 156.354 212.958C147.457 212.774 140.135 212.033 135.041 211.338C132.494 210.991 130.504 210.655 129.152 210.406C128.608 210.306 128.167 210.22 127.835 210.154Z" stroke="black" stroke-opacity="0.2" stroke-width="1.26403" stroke-linejoin="bevel" />
    <path d="M45.4975 129.002C45.5979 128.458 45.6841 128.017 45.7511 127.686C45.8167 127.708 45.8862 127.731 45.9592 127.755C46.5225 127.941 47.3471 128.194 48.4158 128.517C48.8363 128.645 49.2954 128.783 49.7926 128.933C51.8287 129.548 54.5039 130.355 57.7799 131.376C65.903 133.909 77.7163 137.756 92.5824 143.225L92.7615 143.437C137.392 160.064 180.694 180.056 222.295 203.239C221.825 203.518 221.174 203.894 220.345 204.353C218.437 205.408 215.587 206.896 211.826 208.622C204.305 212.073 193.144 216.473 178.605 220.254C149.598 227.799 107.137 232.884 53.2985 223.058C44.4196 197.961 42.565 173.954 42.9354 156.202C43.121 147.306 43.8654 139.984 44.5627 134.89C44.9114 132.343 45.2482 130.354 45.4975 129.002Z" stroke="black" stroke-opacity="0.2" stroke-width="1.26403" stroke-linejoin="bevel" />
    <path d="M126.9 45.592C127.435 45.6907 127.868 45.7756 128.195 45.8419C128.173 45.9086 128.149 45.9791 128.125 46.0533C127.939 46.6171 127.686 47.4425 127.363 48.5117C127.238 48.9235 127.103 49.3723 126.957 49.8576C126.342 51.898 125.532 54.5836 124.507 57.8738C121.97 66.0176 118.113 77.8624 112.631 92.7426C107.414 106.81 100.771 123.618 92.404 142.59C82.0033 166.164 69.0411 193.098 52.7441 222.327C52.4653 221.857 52.0887 221.206 51.6303 220.377C50.5755 218.469 49.0876 215.619 47.3627 211.859C43.9128 204.338 39.5146 193.178 35.7348 178.639C28.196 149.641 23.1152 107.198 32.9301 53.3801C58.0182 44.5233 82.0228 42.6735 99.7622 43.0421C108.645 43.2267 115.953 43.9676 121.034 44.6617C123.574 45.0087 125.556 45.344 126.9 45.592Z" stroke="black" stroke-opacity="0.06" stroke-width="1.26403" stroke-linejoin="bevel" />
    <defs>
        <filter id="filter0_d" x="4.72499" y="6.0551" width="246.55" height="246.55" filterUnits="userSpaceOnUse" color-interpolation-filters="sRGB">
            <feFlood flood-opacity="0" result="BackgroundImageFix" />
            <feColorMatrix in="SourceAlpha" type="matrix" values="0 0 0 0 0 0 0 0 0 0 0 0 0 0 0 0 0 0 127 0" />
            <feOffset dy="1.33" />
            <feGaussianBlur stdDeviation="1" />
            <feColorMatrix type="matrix" values="0 0 0 0 0 0 0 0 0 0 0 0 0 0 0 0 0 0 0.2 0" />
            <feBlend mode="normal" in2="BackgroundImageFix" result="effect1_dropShadow" />
            <feBlend mode="normal" in="SourceGraphic" in2="effect1_dropShadow" result="shape" />
        </filter>
        <filter id="filter1_ii" x="5.72473" y="-2.27502" width="244.55" height="252.55" filterUnits="userSpaceOnUse" color-interpolation-filters="sRGB">
            <feFlood flood-opacity="0" result="BackgroundImageFix" />
            <feBlend mode="normal" in="SourceGraphic" in2="BackgroundImageFix" result="shape" />
            <feColorMatrix in="SourceAlpha" type="matrix" values="0 0 0 0 0 0 0 0 0 0 0 0 0 0 0 0 0 0 127 0" result="hardAlpha" />
            <feOffset dy="-8" />
            <feGaussianBlur stdDeviation="7.5" />
            <feComposite in2="hardAlpha" operator="arithmetic" k2="-1" k3="1" />
            <feColorMatrix type="matrix" values="0 0 0 0 0 0 0 0 0 0 0 0 0 0 0 0 0 0 0.02 0" />
            <feBlend mode="normal" in2="shape" result="effect1_innerShadow" />
            <feColorMatrix in="SourceAlpha" type="matrix" values="0 0 0 0 0 0 0 0 0 0 0 0 0 0 0 0 0 0 127 0" result="hardAlpha" />
            <feOffset dy="-3" />
            <feGaussianBlur stdDeviation="2.5" />
            <feComposite in2="hardAlpha" operator="arithmetic" k2="-1" k3="1" />
            <feColorMatrix type="matrix" values="0 0 0 0 0 0 0 0 0 0 0 0 0 0 0 0 0 0 0.08 0" />
            <feBlend mode="normal" in2="effect1_innerShadow" result="effect2_innerShadow" />
        </filter>
        <filter id="filter2_i" x="28.8099" y="28.8115" width="198.451" height="200.054" filterUnits="userSpaceOnUse" color-interpolation-filters="sRGB">
            <feFlood flood-opacity="0" result="BackgroundImageFix" />
            <feBlend mode="normal" in="SourceGraphic" in2="BackgroundImageFix" result="shape" />
            <feColorMatrix in="SourceAlpha" type="matrix" values="0 0 0 0 0 0 0 0 0 0 0 0 0 0 0 0 0 0 127 0" result="hardAlpha" />
            <feOffset dy="2.11093" />
            <feGaussianBlur stdDeviation="0.840581" />
            <feComposite in2="hardAlpha" operator="arithmetic" k2="-1" k3="1" />
            <feColorMatrix type="matrix" values="0 0 0 0 1 0 0 0 0 1 0 0 0 0 1 0 0 0 0.4 0" />
            <feBlend mode="normal" in2="shape" result="effect1_innerShadow" />
        </filter>
        <filter id="filter3_d" x="90.2386" y="91.0673" width="75.5123" height="75.5666" filterUnits="userSpaceOnUse" color-interpolation-filters="sRGB">
            <feFlood flood-opacity="0" result="BackgroundImageFix" />
            <feColorMatrix in="SourceAlpha" type="matrix" values="0 0 0 0 0 0 0 0 0 0 0 0 0 0 0 0 0 0 127 0" />
            <feOffset dy="0.846901" />
            <feGaussianBlur stdDeviation="0.423451" />
            <feColorMatrix type="matrix" values="0 0 0 0 1 0 0 0 0 1 0 0 0 0 1 0 0 0 0.2 0" />
            <feBlend mode="normal" in2="BackgroundImageFix" result="effect1_dropShadow" />
            <feBlend mode="normal" in="SourceGraphic" in2="effect1_dropShadow" result="shape" />
        </filter>
        <filter id="filter4_i" x="26.8718" y="25.6089" width="202.252" height="203.513" filterUnits="userSpaceOnUse" color-interpolation-filters="sRGB">
            <feFlood flood-opacity="0" result="BackgroundImageFix" />
            <feBlend mode="normal" in="SourceGraphic" in2="BackgroundImageFix" result="shape" />
            <feColorMatrix in="SourceAlpha" type="matrix" values="0 0 0 0 0 0 0 0 0 0 0 0 0 0 0 0 0 0 127 0" result="hardAlpha" />
            <feOffset dy="-1.26403" />
            <feGaussianBlur stdDeviation="0.632016" />
            <feComposite in2="hardAlpha" operator="arithmetic" k2="-1" k3="1" />
            <feColorMatrix type="matrix" values="0 0 0 0 0 0 0 0 0 0 0 0 0 0 0 0 0 0 0.3 0" />
            <feBlend mode="normal" in2="shape" result="effect1_innerShadow" />
        </filter>
        <linearGradient id="paint0_linear" x1="128" y1="91.1324" x2="128" y2="279.351" gradientUnits="userSpaceOnUse">
            <stop stop-color="white" />
            <stop offset="1" />
        </linearGradient>
        <linearGradient id="paint1_linear" x1="117.848" y1="26.873" x2="117.848" y2="113.152" gradientUnits="userSpaceOnUse">
            <stop stop-color="#FCEB76" />
            <stop offset="1" stop-color="#FADF5D" />
        </linearGradient>
        <linearGradient id="paint2_linear" x1="138.174" y1="142.844" x2="138.174" y2="229.123" gradientUnits="userSpaceOnUse">
            <stop stop-color="#07BFCF" />
            <stop offset="1" stop-color="#00B3C6" />
        </linearGradient>
        <linearGradient id="paint3_linear" x1="70.0478" y1="52.8285" x2="70.0478" y2="223.579" gradientUnits="userSpaceOnUse">
            <stop stop-color="#5284E8" />
            <stop offset="1" stop-color="#2454D6" />
        </linearGradient>
        <linearGradient id="paint4_linear" x1="178.04" y1="32.3861" x2="178.04" y2="213.632" gradientUnits="userSpaceOnUse">
            <stop stop-color="#FF7400" />
            <stop offset="1" stop-color="#FF4000" />
        </linearGradient>
        <linearGradient id="paint5_linear" x1="80.8324" y1="42.3665" x2="80.8324" y2="92.9616" gradientUnits="userSpaceOnUse">
            <stop stop-color="#F5E46E" />
            <stop offset="1" stop-color="#EDD753" />
        </linearGradient>
        <linearGradient id="paint6_linear" x1="67.6057" y1="126.807" x2="67.6057" y2="223.454" gradientUnits="userSpaceOnUse">
            <stop stop-color="#275FA9" />
            <stop offset="1" stop-color="#0C4498" />
        </linearGradient>
        <linearGradient id="paint7_linear" x1="175.229" y1="163.035" x2="175.229" y2="213.633" gradientUnits="userSpaceOnUse">
            <stop stop-color="#EA3B00" />
            <stop offset="1" stop-color="#E82C00" />
        </linearGradient>
        <linearGradient id="paint8_linear" x1="188.324" y1="32.3861" x2="188.324" y2="129.033" gradientUnits="userSpaceOnUse">
            <stop stop-color="#F46F01" />
            <stop offset="1" stop-color="#EC5501" />
        </linearGradient>
        <linearGradient id="paint9_linear" x1="127.998" y1="26.8729" x2="127.998" y2="229.122" gradientUnits="userSpaceOnUse">
            <stop stop-opacity="0" />
            <stop offset="1" />
        </linearGradient>
    </defs>
</svg>